<svg xmlns="http://www.w3.org/2000/svg" width="300" height="100" viewBox="0 0 300 100"><g transform="translate(-443 -310)"><g transform="translate(437.006 296.978)"><path d="M79.757,48.758h-35V59.144H69.58C68.35,73.683,56.235,79.923,44.795,79.923a27.287,27.287,0,0,1-27.4-27.654c0-15.724,12.173-27.83,27.438-27.83a26.944,26.944,0,0,1,18.715,7.507l7.269-7.532S61.475,14.022,44.448,14.022c-21.682,0-38.454,18.3-38.454,38.063A38.664,38.664,0,0,0,45,90.337c20.429,0,35.384-14,35.384-34.691a31.088,31.088,0,0,0-.635-6.889Z" transform="translate(0 0)" fill="#4885ed"/><path d="M58.473,23.757A24.236,24.236,0,0,0,33.814,48.081c0,13.291,9.981,24.729,24.827,24.729A24.061,24.061,0,0,0,83.085,48.366c0-16.216-12.8-24.612-24.612-24.612Zm.14,9.634c7.062,0,13.756,5.712,13.756,14.913,0,9-6.665,14.879-13.789,14.879-7.828,0-13.979-6.268-13.979-14.952,0-8.5,6.095-14.84,14.035-14.84Z" transform="translate(49.96 17.477)" fill="#db3236"/><path d="M58.473,23.757A24.236,24.236,0,0,0,33.814,48.081c0,13.291,9.981,24.729,24.827,24.729A24.061,24.061,0,0,0,83.085,48.366c0-16.216-12.8-24.612-24.612-24.612Zm.14,9.634c7.062,0,13.756,5.712,13.756,14.913,0,9-6.665,14.879-13.789,14.879-7.828,0-13.979-6.268-13.979-14.952,0-8.5,6.095-14.84,14.035-14.84Z" transform="translate(103.588 17.477)" fill="#f4c20d"/><path d="M95.753,23.765c-13.185,0-23.547,11.547-23.547,24.508,0,14.762,12.014,24.553,23.317,24.553,6.99,0,10.708-2.776,13.42-5.961V71.7c0,8.463-5.139,13.532-12.894,13.532-7.493,0-11.251-5.572-12.581-8.731L74.04,80.417c3.344,7.073,10.076,14.446,22.087,14.446,13.14,0,23.1-8.256,23.1-25.574V25.238H108.983v4.155a17.333,17.333,0,0,0-13.224-5.628Zm.951,9.618c6.464,0,13.1,5.519,13.1,14.944,0,9.581-6.626,14.86-13.244,14.86-7.029,0-13.568-5.7-13.568-14.77C82.992,39,89.786,33.38,96.7,33.38Z" transform="translate(118.907 17.497)" fill="#4885ed"/><path d="M120.1,23.744c-12.436,0-22.878,9.9-22.878,24.492,0,15.45,11.639,24.612,24.044,24.612,10.378,0,16.775-5.676,20.549-10.764l-8.48-5.642a13.735,13.735,0,0,1-12.017,6.752c-6.895,0-10.065-3.774-12.031-7.437l32.888-13.644-1.678-4c-3.176-7.828-10.588-14.371-20.4-14.371Zm.428,9.433a9.775,9.775,0,0,1,9.075,5.239L107.634,47.6c-.951-7.107,5.787-14.418,12.861-14.418Z" transform="translate(163.823 17.459)" fill="#db3236"/><path d="M91.6,87.222h10.8V14.93H91.6Z" transform="translate(153.735 1.631)" fill="#3cba54"/></g><rect width="300" height="100" transform="translate(443 310)" fill="none"/></g></svg>